<svg height="148px" width="148px" xmlns:xlink="http://www.w3.org/1999/xlink" xmlns="http://www.w3.org/2000/svg"
  version="1.1" viewBox="0 0 1024 1024" class="icon" fill="#ff6743"
  style="height: 100%; width: 100%; background: rgb(255, 255, 255);">
  <g class="ldl-scale" style="transform-origin: 50% 50%; transform: rotate(0deg) scale(0.8, 0.8);">
    <g class="ldl-ani"
      style="transform-origin: 512px 512px; transform: rotate(0deg); animation: 1.25s linear 0s infinite normal forwards running spin-7cfe4c1c-16fd-4df0-9fd3-4b810858796a;">
      <defs>
        <style id="spin-7cfe4c1c-16fd-4df0-9fd3-4b810858796a" data-anikit="">
          @keyframes spin-7cfe4c1c-16fd-4df0-9fd3-4b810858796a {
            0% {
              animation-timing-function: cubic-bezier(0.5856, 0.0703, 0.4143, 0.9297);
              transform: rotate(0deg);
            }

            100% {
              transform: rotate(360deg);
            }
          }
        </style>
      </defs>
      <g class="ldl-layer">
        <g class="ldl-ani">
          <path
            d="M555.008 386.048c31.744-25.6 156.672-230.4 167.936-266.24 11.264-36.864 1.024-66.56-24.576-77.824-116.736-49.152-250.88-49.152-373.76 0-27.648 11.264-35.84 41.984-24.576 77.824s136.192 240.64 168.96 266.24c29.696 22.528 59.392 21.504 86.016 0zM423.936 409.6c-6.144-39.936-120.832-250.88-146.432-278.528-25.6-28.672-57.344-34.816-78.848-17.408C97.28 189.44 29.696 306.176 11.264 437.248c-4.096 28.672 18.432 52.224 55.296 60.416 36.864 8.192 275.456 2.048 314.368-13.312 34.816-14.336 48.128-39.936 43.008-74.752z m-44.032 129.024c-37.888-15.36-277.504-20.48-314.368-12.288-37.888 8.192-58.368 32.768-55.296 59.392C25.6 711.68 93.184 828.416 197.632 909.312c23.552 18.432 54.272 10.24 79.872-17.408 24.576-27.648 140.288-237.568 146.432-278.528 4.096-36.864-11.264-61.44-44.032-74.752z m89.088 99.328c-31.744 25.6-156.672 230.4-167.936 266.24-11.264 36.864-1.024 66.56 24.576 77.824 116.736 49.152 250.88 49.152 373.76 0 27.648-11.264 35.84-41.984 24.576-77.824s-136.192-240.64-168.96-266.24c-29.696-22.528-59.392-21.504-86.016 0zM600.064 614.4c6.144 39.936 120.832 250.88 146.432 278.528 25.6 28.672 57.344 34.816 78.848 17.408 100.352-76.8 167.936-192.512 186.368-323.584 4.096-28.672-18.432-52.224-55.296-60.416-36.864-8.192-275.456-2.048-314.368 13.312-33.792 14.336-47.104 39.936-41.984 74.752z m44.032-129.024c37.888 15.36 277.504 20.48 314.368 12.288 37.888-8.192 58.368-32.768 55.296-59.392-15.36-125.952-82.944-242.688-187.392-323.584-23.552-18.432-54.272-10.24-79.872 17.408-24.576 27.648-140.288 237.568-145.408 278.528-5.12 36.864 10.24 61.44 43.008 74.752z"
            style="fill: rgb(255, 103, 67);"></path>
        </g>
      </g>
    </g>
  </g>
</svg>